<?xml version="1.0" encoding="iso-8859-1"?>
<!-- Generator: Adobe Illustrator 19.0.0, SVG Export Plug-In . SVG Version: 6.00 Build 0)  -->
<svg version="1.1" id="Layer_1" xmlns="http://www.w3.org/2000/svg" xmlns:xlink="http://www.w3.org/1999/xlink" x="0px" y="0px"
	 viewBox="0 0 512 512" style="enable-background:new 0 0 512 512;" xml:space="preserve">
<g transform="translate(1 1)">
	<path style="fill:#FFE100;" d="M450.491,54.855c0,26.065-87.505,46.545-195.491,46.545S59.509,80.92,59.509,54.855
		S147.015,8.309,255,8.309S450.491,29.72,450.491,54.855"/>
	<path style="fill:#FFA800;" d="M255,8.309c-6.516,0-12.102,0-18.618,0c99.607,1.862,176.873,22.342,176.873,46.545
		S335.989,98.607,236.382,101.4c6.516,0,12.102,0,18.618,0c107.985,0,195.491-20.48,195.491-46.545S362.985,8.309,255,8.309"/>
	<path style="fill:#FFFFFF;" d="M255,8.309c6.516,0,12.102,0,18.618,0C174.011,11.102,96.745,30.651,96.745,54.855
		s77.265,43.753,176.873,46.545c-6.516,0-12.102,0-18.618,0c-107.985,0-195.491-20.48-195.491-46.545S147.015,8.309,255,8.309"/>
	<path style="fill:#FFE100;" d="M106.055,464.455l-46.545-409.6C59.509,80.92,147.015,101.4,255,101.4s195.491-20.48,195.491-46.545
		l-46.545,409.6c0,20.48-67.025,37.236-148.945,37.236S106.055,484.935,106.055,464.455"/>
	<path style="fill:#FFA800;" d="M419.771,79.989l-43.753,384.465c0,19.549-59.578,35.375-134.982,37.236c4.655,0,9.309,0,13.964,0
		c81.92,0,148.945-16.756,148.945-37.236l46.545-409.6C450.491,64.164,439.32,72.542,419.771,79.989"/>
	<path style="fill:#FFFFFF;" d="M94.884,79.989l43.753,384.465c0,19.549,59.578,35.375,134.982,37.236c-4.655,0-9.309,0-13.964,0
		c-81.92,0-148.945-16.756-148.945-37.236l-46.545-409.6C64.164,64.164,75.335,72.542,94.884,79.989"/>
	<path d="M255,110.709c-98.676,0-204.8-17.687-204.8-55.855S156.324-1,255-1s204.8,17.687,204.8,55.855S353.676,110.709,255,110.709
		z M255,17.618c-120.087,0-186.182,25.135-186.182,37.236S134.913,92.091,255,92.091s186.182-24.204,186.182-37.236
		S375.087,17.618,255,17.618z"/>
	
		<rect x="120.093" y="82.809" transform="matrix(-0.7633 -0.6461 0.6461 -0.7633 123.5472 369.1464)" width="18.619" height="158.26"/>
	<path d="M96.745,334.127c-1.862,0-4.655-0.931-6.516-1.862c-3.724-3.724-4.655-9.309-0.931-13.033L284.789,95.815
		c3.724-3.724,9.309-4.655,13.033-0.931s4.655,9.309,0.931,13.033L103.262,331.335C102.331,333.196,99.538,334.127,96.745,334.127z"
		/>
	
		<rect x="19.761" y="352.422" transform="matrix(-0.666 -0.7459 0.7459 -0.666 53.8833 747.5873)" width="349.077" height="18.617"/>
	<path d="M413.255,324.818c-2.793,0-4.655-0.931-6.516-2.793l-204.8-214.109c-3.724-3.724-3.724-9.309,0-13.033
		s9.309-3.724,13.033,0l204.8,214.109c3.724,3.724,3.724,9.309,0,13.033C417.909,323.887,415.116,324.818,413.255,324.818z"/>
	<path d="M106.055,473.764c-1.862,0-4.655-0.931-6.516-1.862c-3.724-3.724-4.655-9.309-0.931-13.033L433.735,67.887
		c3.724-3.724,9.309-4.655,13.033-0.931c3.724,3.724,4.655,9.309,0.931,13.033L112.571,470.971
		C111.64,472.833,108.847,473.764,106.055,473.764z"/>
	<path d="M403.945,455.145c-2.793,0-4.655-0.931-6.516-2.793L62.302,79.989c-3.724-3.724-2.793-9.309,0.931-13.033
		c3.724-3.724,9.309-2.793,13.033,0.931l335.127,372.364c3.724,3.724,2.793,9.309-0.931,13.033
		C408.6,454.215,405.807,455.145,403.945,455.145z"/>
	<path d="M199.145,501.691c-1.862,0-4.655-0.931-6.516-2.793c-3.724-3.724-3.724-9.309-0.931-13.033L415.116,234.52
		c3.724-3.724,9.309-4.655,13.033-0.931c3.724,3.724,4.655,9.309,0.931,13.033L205.662,497.967
		C203.8,500.76,201.938,501.691,199.145,501.691z"/>
	<path d="M431.873,222.418c-1.862,0-4.655-0.931-6.516-2.793L304.338,107.916c-3.724-3.724-3.724-9.309-0.931-13.033
		c3.724-3.724,9.309-3.724,13.033-0.931l121.018,111.709c3.724,3.724,3.724,9.309,0.931,13.033
		C436.527,221.487,434.665,222.418,431.873,222.418z"/>
	<path d="M199.145,501.691c-2.793,0-4.655-0.931-6.516-2.793l-102.4-111.709c-3.724-3.724-2.793-9.309,0.931-13.033
		c3.724-3.724,9.309-2.793,13.033,0.931l102.4,111.709c3.724,3.724,2.793,9.309-0.931,13.033
		C203.8,500.76,201.007,501.691,199.145,501.691z"/>
	<path d="M310.855,501.691c-1.862,0-4.655-0.931-5.585-1.862c-3.724-3.724-4.655-9.309-0.931-13.033l102.4-121.018
		c3.724-3.724,9.309-4.655,13.033-0.931c3.724,3.724,4.655,9.309,0.931,13.033l-102.4,121.018
		C316.44,500.76,313.647,501.691,310.855,501.691z"/>
	<path d="M255,511c-53.993,0-157.324-9.309-158.255-45.615L50.2,58.578c0-0.931,0-1.862,0-3.724l18.618-0.931v1.862
		C73.473,68.818,137.705,92.091,255,92.091s181.527-23.273,186.182-36.305v-1.862l18.618,0.931c0,0.931,0,2.793,0,3.724
		l-46.545,405.876C412.324,501.691,308.993,511,255,511z M71.611,81.851l43.753,382.604c0,8.378,49.338,27.927,139.636,27.927
		s139.636-19.549,139.636-27.927v-0.931l43.753-381.673C402.084,101.4,324.818,110.709,255,110.709S107.916,101.4,71.611,81.851z"/>
</g>
<g>
</g>
<g>
</g>
<g>
</g>
<g>
</g>
<g>
</g>
<g>
</g>
<g>
</g>
<g>
</g>
<g>
</g>
<g>
</g>
<g>
</g>
<g>
</g>
<g>
</g>
<g>
</g>
<g>
</g>
</svg>
